<svg width="93" height="40" viewBox="0 0 93 40" fill="none" xmlns="http://www.w3.org/2000/svg">
<path d="M53.1905 0.760977C54.1693 -0.216935 55.7554 -0.216236 56.7334 0.762445C57.7113 1.74115 57.7108 3.32731 56.7321 4.30527L39.9997 21.0243V37.4949C39.9996 38.8784 38.8779 40 37.4943 40C37.1984 40 36.9147 39.9484 36.6511 39.8542C36.2965 39.7347 35.9629 39.5342 35.6805 39.2515L23.3592 26.9202C22.3813 25.9415 22.382 24.3551 23.3607 23.3772C24.3395 22.3993 25.9256 22.4 26.9035 23.3786L34.9892 31.4707V18.9478L53.1905 0.760977ZM44.4635 23.3914C45.4423 22.4134 47.0286 22.4139 48.0066 23.3926L60.3278 35.7238C61.3058 36.7026 61.3051 38.289 60.3263 39.2669C59.3476 40.2448 57.7614 40.2441 56.7835 39.2654L44.4621 26.9342C43.4842 25.9555 43.4849 24.3693 44.4635 23.3914ZM35.6817 0.775659C36.66 -0.202662 38.2462 -0.202679 39.2245 0.775659C40.2028 1.754 40.2028 3.34015 39.2245 4.31848L4.29077 39.2522C3.31242 40.2306 1.72604 40.2306 0.747698 39.2522C-0.230548 38.2739 -0.230558 36.6877 0.747698 35.7094L35.6817 0.775659ZM81.1686 26.2493C82.5521 26.2494 83.6737 27.3711 83.6737 28.7547C83.6736 30.1382 82.5521 31.2597 81.1686 31.2598H63.6876C62.3041 31.2597 61.1826 30.1382 61.1825 28.7547C61.1825 27.3711 62.304 26.2493 63.6876 26.2493H81.1686ZM89.9504 17.5086C91.334 17.5086 92.4555 18.6304 92.4555 20.0139C92.4554 21.3975 91.3339 22.5191 89.9504 22.5191H55.0585C53.6749 22.5191 52.5532 21.3975 52.5531 20.0139C52.5531 18.6304 53.6749 17.5086 55.0585 17.5086H89.9504ZM0.0275834 19.9861V2.87679C-0.0856599 2.11786 0.149765 1.31685 0.73424 0.732838C1.22715 0.240337 1.87421 -0.00333653 2.51997 0.000489374C2.52421 0.000468203 2.52845 8.45672e-08 2.53269 0C3.33599 0 4.05034 0.378597 4.50879 0.966515C6.62921 3.08939 8.56079 5.0331 10.4897 6.97456C12.4891 8.987 14.4859 10.9969 16.692 13.2048C17.6699 14.1835 17.6692 15.7697 16.6905 16.7476C15.7118 17.7256 14.1257 17.7249 13.1477 16.7461C10.9358 14.5325 8.93403 12.5179 6.9351 10.5059C6.30478 9.87146 5.67449 9.23753 5.03804 8.59733V19.9861C5.03802 21.3696 3.91626 22.4912 2.53269 22.4912C1.14914 22.4911 0.0276113 21.3696 0.0275834 19.9861ZM81.2515 8.76812C82.6351 8.76812 83.7569 9.88988 83.7569 11.2735C83.7568 12.657 82.6351 13.7786 81.2515 13.7786H63.7708C62.3872 13.7786 61.2657 12.657 61.2657 11.2735C61.2657 9.88988 62.3872 8.76812 63.7708 8.76812H81.2515Z" fill="#1E1E1E"/>
</svg>
